<svg width="60" height="60" viewBox="0 0 60 60" fill="none" xmlns="http://www.w3.org/2000/svg">
<g clip-path="url(#clip0_52_491)">
<path d="M10.625 0H49.375C55.25 0 60 4.8718 60 10.8974V49.1026C60 55.1282 55.25 60 49.375 60H10.625C4.75 60 0 55.1282 0 49.1026V10.8974C0 4.8718 4.75 0 10.625 0Z" fill="#330000"/>
<path d="M28.9999 35.701H19.6999L17.7999 41.5258C17.7499 41.7489 17.5499 41.8976 17.3249 41.8728H12.6249C12.3499 41.8728 12.2749 41.7241 12.3499 41.4267L20.3999 18.4497C20.4749 18.2019 20.5499 17.9292 20.6499 17.6318C20.7499 17.1113 20.7999 16.566 20.7999 16.0207C20.7749 15.8967 20.8749 15.7728 20.9999 15.748H27.4749C27.6749 15.748 27.7749 15.8224 27.7999 15.9463L36.9249 41.4762C36.9999 41.7489 36.9249 41.8728 36.6749 41.8728H31.4499C31.2749 41.8976 31.0999 41.7737 31.0499 41.6002L28.9999 35.701ZM21.1499 30.6694H27.4999C27.3499 30.1489 27.1499 29.5292 26.9249 28.8848C26.6999 28.2155 26.4749 27.4967 26.2499 26.7531C25.9999 25.9848 25.7749 25.2412 25.5249 24.4728C25.2749 23.7044 25.0499 22.9856 24.8499 22.2668C24.6499 21.5728 24.4749 20.9284 24.2999 20.3335H24.2499C24.0249 21.3993 23.7499 22.4651 23.3999 23.5309C23.0249 24.7207 22.6499 25.96 22.2499 27.1993C21.8999 28.4634 21.5249 29.6284 21.1499 30.6694ZM42.4999 20.0856C41.6749 20.1104 40.8749 19.7882 40.2749 19.2181C39.6999 18.5984 39.3999 17.7805 39.4249 16.9378C39.3999 16.095 39.7249 15.3019 40.3249 14.7318C40.9249 14.1617 41.7249 13.8643 42.5499 13.8643C43.5249 13.8643 44.2749 14.1617 44.8249 14.7318C45.3749 15.3267 45.6749 16.1198 45.6499 16.9378C45.6749 17.7805 45.3749 18.5984 44.7749 19.2181C44.1999 19.813 43.3499 20.1352 42.4999 20.0856ZM39.6999 41.6002V22.5147C39.6999 22.2668 39.7999 22.1677 40.0249 22.1677H44.9749C45.1999 22.1677 45.2999 22.2916 45.2999 22.5147V41.6002C45.2999 41.8728 45.1999 41.9967 44.9749 41.9967H40.0749C39.8249 41.9967 39.6999 41.848 39.6999 41.6002Z" fill="#FF9A00"/>
</g>
<defs>
<clipPath id="clip0_52_491">
<rect width="60" height="60" fill="white"/>
</clipPath>
</defs>
</svg>
