<svg width="60" height="60" viewBox="0 0 60 60" fill="none" xmlns="http://www.w3.org/2000/svg">
<g clip-path="url(#clip0_52_475)">
<path d="M29.9789 59.9577C46.5357 59.9577 59.9577 46.5357 59.9577 29.9789C59.9577 13.422 46.5357 0 29.9789 0C13.422 0 0 13.422 0 29.9789C0 46.5357 13.422 59.9577 29.9789 59.9577Z" fill="#7D2AE7"/>
<path d="M29.9789 59.9577C46.5357 59.9577 59.9577 46.5357 59.9577 29.9789C59.9577 13.422 46.5357 0 29.9789 0C13.422 0 0 13.422 0 29.9789C0 46.5357 13.422 59.9577 29.9789 59.9577Z" fill="url(#paint0_radial_52_475)"/>
<path d="M29.9789 59.9577C46.5357 59.9577 59.9577 46.5357 59.9577 29.9789C59.9577 13.422 46.5357 0 29.9789 0C13.422 0 0 13.422 0 29.9789C0 46.5357 13.422 59.9577 29.9789 59.9577Z" fill="url(#paint1_radial_52_475)"/>
<path d="M29.9789 59.9577C46.5357 59.9577 59.9577 46.5357 59.9577 29.9789C59.9577 13.422 46.5357 0 29.9789 0C13.422 0 0 13.422 0 29.9789C0 46.5357 13.422 59.9577 29.9789 59.9577Z" fill="url(#paint2_radial_52_475)"/>
<path d="M29.9789 59.9577C46.5357 59.9577 59.9577 46.5357 59.9577 29.9789C59.9577 13.422 46.5357 0 29.9789 0C13.422 0 0 13.422 0 29.9789C0 46.5357 13.422 59.9577 29.9789 59.9577Z" fill="url(#paint3_radial_52_475)"/>
<path d="M52.7649 32.6983C52.6864 32.6983 52.6148 32.7491 52.5779 32.8554C52.1041 34.2073 51.4641 35.0114 50.9372 35.0114C50.6345 35.0114 50.512 34.674 50.512 34.1449C50.512 32.8209 51.3045 30.0132 51.7043 28.7331C51.7506 28.5781 51.7806 28.4396 51.7806 28.3217C51.7806 27.9497 51.5772 27.7671 51.0735 27.7671C50.5304 27.7671 49.9459 27.9797 49.3774 28.9757C49.181 28.0976 48.5871 27.7139 47.7575 27.7139C46.7985 27.7139 45.8719 28.3309 45.1094 29.3316C44.3469 30.3321 43.4502 30.6603 42.7755 30.4985C43.2607 29.3107 43.441 28.4233 43.441 27.7648C43.441 26.7318 42.9303 26.108 42.1054 26.108C40.8506 26.108 40.1274 27.3049 40.1274 28.5643C40.1274 29.5372 40.5686 30.5377 41.5393 31.023C40.7258 32.8624 39.5381 34.5262 39.0875 34.5262C38.5053 34.5262 38.3341 31.677 38.3665 29.6388C38.3873 28.4695 38.4843 28.4095 38.4843 28.056C38.4843 27.8526 38.3527 27.7139 37.8235 27.7139C36.5895 27.7139 36.2082 28.7585 36.1505 29.9578C36.1318 30.4135 36.0605 30.8656 35.9379 31.305C35.4226 33.1443 34.3596 34.54 33.6664 34.54C33.3451 34.54 33.2574 34.2187 33.2574 33.7983C33.2574 32.4742 33.9991 30.8196 33.9991 29.4078C33.9991 28.3703 33.5439 27.7141 32.6867 27.7141C31.6768 27.7141 30.3412 28.9156 29.0772 31.1663C29.4931 29.4425 29.6642 27.7741 28.4325 27.7741C28.1652 27.778 27.9029 27.8462 27.6676 27.9728C27.5887 28.0099 27.5227 28.0698 27.4783 28.1448C27.4338 28.2197 27.4128 28.3063 27.418 28.3933C27.5359 30.2281 25.9391 34.9282 24.4256 34.9282C24.1506 34.9282 24.0166 34.6301 24.0166 34.1495C24.0166 32.8231 24.8068 30.0224 25.2043 28.74C25.2551 28.5735 25.2829 28.4303 25.2829 28.3055C25.2829 27.9543 25.0656 27.7741 24.5734 27.7741C24.0327 27.7741 23.4458 27.9797 22.8797 28.9757C22.681 28.0976 22.0871 27.7139 21.2575 27.7139C19.8965 27.7139 18.376 29.1537 17.7082 31.03C16.8138 33.5349 15.0115 35.9542 12.5851 35.9542C10.383 35.9542 9.22064 34.1218 9.22064 31.2263C9.22064 27.0461 12.2894 23.6309 14.5655 23.6309C15.6539 23.6309 16.1738 24.3241 16.1738 25.387C16.1738 26.6741 15.4551 27.2726 15.4551 27.7625C15.4551 27.9127 15.5799 28.0606 15.8271 28.0606C16.8162 28.0606 17.9808 26.8983 17.9808 25.3131C17.9808 23.7278 16.6937 22.5679 14.4176 22.5679C10.6557 22.5679 6.87061 26.353 6.87061 31.2033C6.87061 35.0623 8.77466 37.3892 12.0675 37.3892C14.3136 37.3892 16.2755 35.6423 17.3338 33.6041C17.454 35.2933 18.2211 36.1761 19.3904 36.1761C20.4303 36.1761 21.2713 35.5568 21.9137 34.4684C22.161 35.6076 22.8173 36.1645 23.67 36.1645C24.6474 36.1645 25.4654 35.5452 26.2441 34.3945C26.2327 35.298 26.4383 36.1484 27.2216 36.1484C27.5913 36.1484 28.0327 36.0628 28.1113 35.7393C28.9362 32.3286 30.9743 29.5441 31.5983 29.5441C31.7831 29.5441 31.8339 29.722 31.8339 29.9323C31.8339 30.859 31.1799 32.7584 31.1799 33.9717C31.1799 35.2817 31.7369 36.1484 32.8877 36.1484C34.1633 36.1484 35.4595 34.5862 36.3238 32.3032C36.5942 34.4361 37.1789 36.1575 38.0939 36.1575C39.2169 36.1575 41.211 33.7937 42.4197 31.291C42.8933 31.3511 43.605 31.335 44.289 30.852C43.9978 31.5891 43.8269 32.3957 43.8269 33.202C43.8269 35.5244 44.936 36.1761 45.8903 36.1761C46.9279 36.1761 47.7691 35.5568 48.4138 34.4684C48.6264 35.4505 49.1694 36.1621 50.1677 36.1621C51.7297 36.1621 53.0862 34.5654 53.0862 33.2552C53.0862 32.9087 52.9383 32.6983 52.7649 32.6983ZM20.3425 34.8889C19.7116 34.8889 19.4643 34.2535 19.4643 33.3061C19.4643 31.6608 20.5897 28.9132 21.7798 28.9132C22.2997 28.9132 22.4961 29.5256 22.4961 30.2743C22.4961 31.945 21.4263 34.8889 20.3425 34.8889ZM41.9505 29.9786C41.5739 29.5302 41.4376 28.9202 41.4376 28.3771C41.4376 27.7071 41.6825 27.1409 41.9759 27.1409C42.2694 27.1409 42.3595 27.4298 42.3595 27.8318C42.3595 28.5042 42.1192 29.4863 41.9505 29.9786ZM46.8424 34.8889C46.2117 34.8889 45.9644 34.1587 45.9644 33.3061C45.9644 31.7186 47.0897 28.9132 48.289 28.9132C48.809 28.9132 48.9938 29.521 48.9938 30.2743C48.9938 31.945 47.9424 34.8889 46.8424 34.8889Z" fill="white"/>
</g>
<defs>
<radialGradient id="paint0_radial_52_475" cx="0" cy="0" r="1" gradientUnits="userSpaceOnUse" gradientTransform="translate(11.5641 53.1417) rotate(-49.416) scale(46.3723)">
<stop stop-color="#6420FF"/>
<stop offset="1" stop-color="#6420FF" stop-opacity="0"/>
</radialGradient>
<radialGradient id="paint1_radial_52_475" cx="0" cy="0" r="1" gradientUnits="userSpaceOnUse" gradientTransform="translate(15.8729 6.81611) rotate(54.703) scale(52.2933)">
<stop stop-color="#00C4CC"/>
<stop offset="1" stop-color="#00C4CC" stop-opacity="0"/>
</radialGradient>
<radialGradient id="paint2_radial_52_475" cx="0" cy="0" r="1" gradientUnits="userSpaceOnUse" gradientTransform="translate(11.5813 53.1415) rotate(-45.1954) scale(45.8108 21.069)">
<stop stop-color="#6420FF"/>
<stop offset="1" stop-color="#6420FF" stop-opacity="0"/>
</radialGradient>
<radialGradient id="paint3_radial_52_475" cx="0" cy="0" r="1" gradientUnits="userSpaceOnUse" gradientTransform="translate(24.5195 8.07851) rotate(66.5198) scale(47.2044 79.078)">
<stop stop-color="#00C4CC"/>
<stop offset="1" stop-color="#00C4CC" stop-opacity="0"/>
</radialGradient>
<clipPath id="clip0_52_475">
<rect width="60" height="60" fill="white"/>
</clipPath>
</defs>
</svg>
