<svg width="60" height="60" viewBox="0 0 60 60" fill="none" xmlns="http://www.w3.org/2000/svg">
<g clip-path="url(#clip0_52_487)">
<path d="M49.3755 0H10.6245C4.75676 0 0 4.87868 0 10.8968V49.1032C0 55.1213 4.75676 60 10.6245 60H49.3755C55.2432 60 60 55.1213 60 49.1032V10.8968C60 4.87868 55.2432 0 49.3755 0Z" fill="#001E36"/>
<path d="M12.9614 42.0761V15.6961C12.9614 15.5049 13.0438 15.4075 13.211 15.4075C13.6532 15.4075 14.0591 15.4075 14.6648 15.3871C15.2706 15.3667 15.9332 15.3594 16.6408 15.3462L18.8869 15.3041C19.6768 15.2905 20.4598 15.2837 21.236 15.2837C23.3432 15.2837 25.1201 15.545 26.5666 16.0677C27.867 16.5052 29.0531 17.2245 30.0388 18.1732C30.8747 18.9961 31.5203 19.9894 31.9312 21.0844C32.3198 22.1507 32.5163 23.2766 32.5115 24.4105C32.5115 26.6134 31.9986 28.43 30.9729 29.8601C29.9399 31.2964 28.4884 32.3842 26.8138 32.9769C25.0668 33.6239 23.1247 33.8427 20.9901 33.8427C20.3843 33.8427 19.9506 33.8367 19.701 33.8223C19.4515 33.8078 19.0771 33.8018 18.578 33.8018V42.0376C18.5843 42.0803 18.582 42.1239 18.5713 42.1658C18.5606 42.2076 18.5416 42.247 18.5155 42.2815C18.4893 42.3161 18.4566 42.3451 18.419 42.3671C18.3815 42.389 18.34 42.4033 18.2969 42.4092C18.266 42.414 18.2345 42.414 18.2036 42.4092H13.2522C13.0535 42.4056 12.9614 42.2961 12.9614 42.0761ZM18.578 20.3618V28.9655C18.9382 28.9935 19.2709 29.0072 19.5762 29.0064H20.9489C21.9589 29.0029 22.9623 28.8439 23.9231 28.535C24.7468 28.2931 25.4831 27.8215 26.0445 27.1762C26.5848 26.5437 26.855 25.6619 26.855 24.5307C26.8759 23.7321 26.6657 22.9442 26.2492 22.2605C25.8127 21.5992 25.1816 21.0873 24.4417 20.7946C23.4771 20.4228 22.4471 20.2474 21.4129 20.2788C20.7466 20.2788 20.1574 20.2856 19.6453 20.2992C19.1332 20.3129 18.7795 20.3337 18.584 20.3618H18.578Z" fill="#31A8FF"/>
<path d="M48.5929 27.4009C47.8113 27.0019 46.9786 26.7102 46.1178 26.5339C45.1696 26.3176 44.2001 26.2067 43.2271 26.2032C42.701 26.1893 42.1757 26.2521 41.6679 26.3896C41.3443 26.4607 41.0567 26.6435 40.8562 26.9055C40.7207 27.115 40.6488 27.3588 40.649 27.6077C40.6564 27.8491 40.7442 28.0813 40.8986 28.2679C41.1414 28.55 41.4383 28.7814 41.7721 28.9485C42.3648 29.2644 42.9756 29.5454 43.6015 29.7902C44.9974 30.2543 46.3314 30.885 47.574 31.6685C48.4197 32.1992 49.1198 32.9297 49.6118 33.7945C50.0263 34.6147 50.2342 35.5225 50.2175 36.4399C50.2421 37.6499 49.8938 38.8384 49.2192 39.8465C48.4966 40.8691 47.4933 41.6642 46.3286 42.1373C45.0638 42.6888 43.5025 42.9646 41.6449 42.9646C40.4654 42.9755 39.288 42.8646 38.1315 42.6339C37.2201 42.468 36.333 42.1905 35.4905 41.8078C35.3993 41.7614 35.3234 41.6901 35.2717 41.6023C35.22 41.5146 35.1946 41.414 35.1985 41.3124V36.8548C35.1932 36.8111 35.2002 36.7668 35.2185 36.7267C35.2369 36.6866 35.266 36.6523 35.3027 36.6275C35.3384 36.6073 35.3795 36.5984 35.4204 36.6021C35.4613 36.6057 35.5002 36.6217 35.5316 36.648C36.5276 37.2308 37.6092 37.6556 38.7373 37.9069C39.7309 38.1545 40.7502 38.286 41.7745 38.299C42.7437 38.299 43.4577 38.1751 43.9165 37.9274C44.123 37.8335 44.2977 37.6822 44.4194 37.4919C44.5411 37.3015 44.6046 37.0802 44.6022 36.8548C44.6022 36.4964 44.3942 36.1521 43.9783 35.8219C43.5623 35.4916 42.7159 35.0948 41.4389 34.6314C40.133 34.1804 38.8949 33.5554 37.7584 32.7736C36.9456 32.2132 36.276 31.472 35.803 30.6091C35.3931 29.7959 35.1854 28.897 35.1973 27.9877C35.1937 26.8924 35.4965 25.8176 36.072 24.8829C36.7258 23.8561 37.6649 23.0388 38.7761 22.5297C39.9956 21.9244 41.5205 21.6218 43.3507 21.6218C44.4228 21.6129 45.4939 21.6885 46.5539 21.8479C47.3213 21.9458 48.0714 22.1481 48.7831 22.4491C48.8396 22.4652 48.8915 22.4941 48.9349 22.5335C48.9782 22.573 49.0117 22.6219 49.0327 22.6764C49.0608 22.777 49.0747 22.881 49.0739 22.9854V27.1556C49.0772 27.2038 49.0678 27.252 49.0465 27.2955C49.0253 27.3389 48.9929 27.3761 48.9527 27.4033C48.8966 27.4306 48.8349 27.4445 48.7725 27.4441C48.7101 27.4437 48.6486 27.4289 48.5929 27.4009Z" fill="#31A8FF"/>
</g>
<defs>
<clipPath id="clip0_52_487">
<rect width="60" height="60" fill="white"/>
</clipPath>
</defs>
</svg>
